<svg xmlns="http://www.w3.org/2000/svg" xmlns:xlink="http://www.w3.org/1999/xlink" width="1144" height="1144" viewBox="0 0 1144 1144">
  <defs>
    <linearGradient id="linear-gradient" x1="0.151" y1="-0.359" x2="0.946" y2="1.247" gradientUnits="objectBoundingBox">
      <stop offset="0" stop-color="#00ffab"/>
      <stop offset="1" stop-color="#6b0ec8"/>
    </linearGradient>
    <clipPath id="clip-custom_1">
      <rect width="1144" height="1144"/>
    </clipPath>
  </defs>
  <g id="custom_1" data-name="custom – 1" clip-path="url(#clip-custom_1)">
    <path id="Intersection_1" data-name="Intersection 1" d="M773.17,442.247a26.5,26.5,0,0,1,0-37.469L942.722,235.225,773.17,65.673A26.492,26.492,0,0,1,810.639,28.21L997.973,215.544a28.905,28.905,0,0,1,.007,39.363l-187.34,187.34a26.5,26.5,0,0,1-37.469,0Zm-569.624,0L16.206,254.914a28.9,28.9,0,0,1,0-39.37L203.546,28.2a26.495,26.495,0,1,1,37.469,37.469L71.456,235.232,241.009,404.778a26.492,26.492,0,1,1-37.463,37.469Zm269.807-34.1a26.506,26.506,0,0,1-6.506-36.9l206.32-294.66a26.5,26.5,0,0,1,43.41,30.391L510.25,401.644a26.5,26.5,0,0,1-36.9,6.506Zm-151.39,0a26.506,26.506,0,0,1-6.506-36.9l206.32-294.66a26.493,26.493,0,1,1,43.4,30.391L358.86,401.644a26.5,26.5,0,0,1-36.9,6.506Z" transform="translate(65 337)" fill="url(#linear-gradient)"/>
  </g>
</svg>
